<svg id="visual" viewBox="0 0 900 600" width="900" height="600" xmlns="http://www.w3.org/2000/svg" xmlns:xlink="http://www.w3.org/1999/xlink" version="1.1"><path d="M0 132L18.8 134.2C37.7 136.3 75.3 140.7 112.8 135.3C150.3 130 187.7 115 225.2 104.5C262.7 94 300.3 88 337.8 93.7C375.3 99.3 412.7 116.7 450.2 133.8C487.7 151 525.3 168 562.8 169.2C600.3 170.3 637.7 155.7 675.2 137.3C712.7 119 750.3 97 787.8 90.8C825.3 84.7 862.7 94.3 881.3 99.2L900 104L900 0L881.3 0C862.7 0 825.3 0 787.8 0C750.3 0 712.7 0 675.2 0C637.7 0 600.3 0 562.8 0C525.3 0 487.7 0 450.2 0C412.7 0 375.3 0 337.8 0C300.3 0 262.7 0 225.2 0C187.7 0 150.3 0 112.8 0C75.3 0 37.7 0 18.8 0L0 0Z" fill="#fff3eb" stroke-linecap="round" stroke-linejoin="miter"></path></svg>