<svg id="visual" viewBox="0 0 900 600" width="900" height="600" xmlns="http://www.w3.org/2000/svg" xmlns:xlink="http://www.w3.org/1999/xlink" version="1.1"><rect x="0" y="0" width="900" height="600" fill="#002233"></rect><path d="M0 130L21.5 130C43 130 86 130 128.8 127.3C171.7 124.7 214.3 119.3 257.2 115.8C300 112.3 343 110.7 385.8 113.2C428.7 115.7 471.3 122.3 514.2 126C557 129.7 600 130.3 642.8 129.8C685.7 129.3 728.3 127.7 771.2 123.8C814 120 857 114 878.5 111L900 108L900 0L878.5 0C857 0 814 0 771.2 0C728.3 0 685.7 0 642.8 0C600 0 557 0 514.2 0C471.3 0 428.7 0 385.8 0C343 0 300 0 257.2 0C214.3 0 171.7 0 128.8 0C86 0 43 0 21.5 0L0 0Z" fill="#0066FF" stroke-linecap="round" stroke-linejoin="miter"></path></svg>